<?xml version="1.0" encoding="utf-8"?>
<svg version="1.1" id="Layer_1" xmlns="http://www.w3.org/2000/svg" xmlns:xlink="http://www.w3.org/1999/xlink" x="0px" y="0px"
	 viewBox="0 0 512 512" style="enable-background:new 0 0 512 512;" xml:space="preserve">
<style type="text/css">
	.st0{fill:#53B4FF;}
	.st1{fill:#FFE000;}
	.st2{fill:#FFFFFF;}
</style>
<circle class="st0" cx="255.78" cy="256.22" r="255.78"/>
<g>
	<path class="st1" d="M432.81,365.02c-23.74,13.68-53.25,20.52-88.52,20.52c-39.12,0-69.96-10.82-92.51-32.48
		c-22.55-21.65-33.83-51.47-33.83-89.46c0-38.21,12.32-69.36,36.97-93.44s57.43-36.12,98.36-36.12c25.78,0,48.5,3.56,68.17,10.68
		v51.38c-18.77-10.85-41.72-16.28-68.85-16.28c-22.72,0-41.24,7.38-55.54,22.13c-14.3,14.76-21.45,34.46-21.45,59.1
		c0,24.99,6.41,44.32,19.25,58c12.83,13.68,30.16,20.52,51.98,20.52c13.11,0,23.52-1.87,31.2-5.6V286.5h-48.67v-43.75h103.45v122.27
		H432.81z"/>
</g>
<path class="st0" d="M295.45,509.17L257.4,177.85c0,0-92.98,13.52-154.3,90.39s-56.57,132.3-56.57,132.3l124.42,68.12L295.45,509.17
	z"/>
<g>
	<path class="st2" d="M90.1,386.25V136.38h90.96c27.88,0,49.31,5.11,64.3,15.33c14.98,10.22,22.48,24.63,22.48,43.21
		c0,13.48-4.56,25.27-13.68,35.37c-9.12,10.11-20.76,17.14-34.94,21.08v0.7c17.77,2.21,31.97,8.77,42.6,19.69
		s15.94,24.22,15.94,39.9c0,22.89-8.19,41.03-24.57,54.45s-38.74,20.13-67.08,20.13L90.1,386.25L90.1,386.25z M146.38,177.85v59.24
		h24.74c11.62,0,20.76-2.81,27.44-8.45c6.68-5.63,10.02-13.39,10.02-23.26c0-18.35-13.71-27.53-41.12-27.53L146.38,177.85
		L146.38,177.85z M146.38,278.92v65.87h30.49c13.01,0,23.2-3.02,30.58-9.06s11.06-14.29,11.06-24.74c0-9.99-3.63-17.83-10.89-23.52
		s-17.4-8.54-30.41-8.54h-30.83V278.92z"/>
</g>
</svg>
